# xmcd
#
# Track frame offsets: 
#        150
#        19683
#        36508
#        55852
#        76725
#        111527
#        131195
#        151702
#
# Disc length: 2258 seconds
#
# Revision: 0
# Processed by: cddbd v1.5.2PL0 Copyright (c) Steve Scherf et al.
# Submitted via: ExactAudioCopyFreeDBPlugin 1.0
#
DISCID=6208d008
DTITLE=Tom Principato - Robert Johnson Told Me So
DYEAR=2013
DGENRE=Blues
TTITLE0=Robert Johnson Told Me So
TTITLE1=Knockin' On The Door
TTITLE2=It Ain't Over ('til It's Over)
TTITLE3=What Goes Around (Comes Back Around)
TTITLE4=The Rain Came Pourin' Down
TTITLE5=Falls Church, Virginia 22042
TTITLE6=Run Out Of Time
TTITLE7=It Ain't Over ('til It's Over) Reprise
EXTD=
EXTT0=
EXTT1=
EXTT2=
EXTT3=
EXTT4=
EXTT5=
EXTT6=
EXTT7=
PLAYORDER=
